After Victor, 19 years old, is accused of raping a 17-year-old girl, his teachers -under the direction of principal Cornelia Cordes- have to decide whether he should be suspended or not. The discussion of these nine persons shows the contrasts in human character and reveals some bitter feelings. Movie made for TV.

   General
      Complete name : Die Konferenz.avi
      Format : AVI
      Format/Info : Audio Video Interleave
      File size : 1.22 GiB
      Duration : 1h 29mn
      Overall bit rate : 1 936 Kbps
      Writing application : FairUse Wizard 
    Video #0
      ID : 0
      Format : MPEG-4 Visual
      Format profile : AdvancedSimple@L5
      Format settings, BVOP : Yes
      Format settings, QPel : No
      Format settings, GMC : No warppoints
      Format settings, Matrix : Default (MPEG)
      Muxing mode : Packed bitstream
      Codec ID : XVID
      Codec ID/Hint : XviD
      Duration : 1h 29mn
      Bit rate : 1 734 Kbps
      Width : 688 pixels
      Height : 384 pixels
      Display aspect ratio : 16:9
      Frame rate : 25.000 fps
      Resolution : 24 bits
      Colorimetry : 4:2:0
      Scan type : Progressive
      Bits/(Pixel*Frame) : 0.263
      Stream size : 1.09 GiB (90%)
      Writing library : XviD 1.2.1 (UTC 2008-12-04)
   Audio #1
      ID : 1
      Format : AC-3
      Format/Info : Audio Coding 3
      Format profile : Dolby Digital
      Codec ID : 2000
      Duration : 1h 29mn
      Bit rate mode : Constant
      Bit rate : 192 Kbps
      Channel(s) : 2 channels
      Channel positions : L R
      Sampling rate : 48.0 KHz
      Stream size : 124 MiB (10%)
      Alignment : Split accross interleaves
      Interleave, duration : 40 ms (1.00 video frame)
      Interleave, preload duration : 500 ms
 
http://www.imdb.com/title/tt0446726/

German audio; multilanguage subpack (English, German, French, Spanish, Portuguese, Italian, Russian, Chinese)

My rip

Nikolaus Stein von Kamienski - Die Konferenz (2004)